<svg width="89" height="81" viewBox="0 0 89 81" fill="none" xmlns="http://www.w3.org/2000/svg">
<path d="M45.4179 9.87034L75.6479 24.9826L69.4736 60.0848L45.4179 72.0786L21.3622 60.0848L15.1878 24.9826L45.4179 9.87034ZM27.3761 9.87034L23.6074 3.39364C23.447 3.15376 23.1262 3.15376 22.9659 3.31368L6.76833 19.3855C5.8061 20.345 5.40517 21.7043 5.64573 22.9837L9.01353 39.3753L1.39588 39.0555C1.07514 39.0555 0.914766 39.3753 0.994952 39.6152L13.6643 64.3226C14.0652 65.1222 14.7067 65.6819 15.4284 66.0817L27.3761 72.0786L23.6074 78.4754C23.447 78.7153 23.6074 79.0351 23.9281 79.115L44.1349 80.9541C44.8566 81.0341 45.6585 80.8742 46.2999 80.5543L63.2191 72.0786L66.9879 78.4754C67.1483 78.7153 67.469 78.7153 67.6294 78.4754L75.8885 66.1617C76.2093 65.7619 76.3696 65.2021 76.4498 64.7224L80.9402 42.4937L88.5579 42.8136C88.7984 42.8136 89.039 42.5737 88.9588 42.3338L85.6712 22.9037C85.4306 21.6244 84.6288 20.5849 83.5062 20.0252L63.3795 9.87034L67.0681 3.4736C67.2284 3.23372 67.0681 2.91389 66.7473 2.91389L46.5405 0.994864C45.8188 0.914904 45.017 1.07482 44.3755 1.39466L27.3761 9.87034Z" fill="#0C0A10"/>
<path d="M24.0885 29.4604L45.4179 18.8258L66.6671 29.4604L62.2569 54.7275L45.4179 63.1232L28.4987 54.7275L24.0885 29.4604Z" fill="url(#paint0_linear_2_5650)"/>
<defs>
<linearGradient id="paint0_linear_2_5650" x1="45.3778" y1="18.8258" x2="45.3778" y2="63.1232" gradientUnits="userSpaceOnUse">
<stop stop-color="#EA4C3E"/>
<stop offset="1" stop-color="#EC3827"/>
</linearGradient>
</defs>
</svg>
