<svg width="244" height="32" viewBox="0 0 244 32" fill="none" xmlns="http://www.w3.org/2000/svg">
<path fill-rule="evenodd" clip-rule="evenodd" d="M11.7389 0.2234C14.7689 0.114098 17.7704 0.844505 20.4139 2.33444C22.7573 3.63953 24.6498 5.62867 25.8403 8.03793C26.9807 10.5187 27.5244 13.2334 27.4277 15.9636C27.4899 18.8627 26.8166 21.7301 25.4712 24.2966C24.2161 26.6243 22.3194 28.5401 20.0078 29.8149C17.463 31.1648 14.6168 31.8404 11.7389 31.7778H0V0.2234H11.7389ZM16.2425 24.2225C17.4767 23.3881 18.4496 22.2195 19.048 20.8523V20.7782C19.7106 19.2747 20.0382 17.6442 20.0078 16.0006C20.0546 14.3197 19.7267 12.6495 19.048 11.1119C18.4515 9.75203 17.4611 8.60357 16.2056 7.81572C14.8677 6.98291 13.3122 6.57021 11.7389 6.63058H7.38295V25.4447H11.7389C13.328 25.4969 14.8963 25.0713 16.2425 24.2225Z" fill="#0C0A10"/>
<path d="M32.1897 0.223549H39.4619V31.778H32.1897V0.223549Z" fill="#0C0A10"/>
<path d="M57.4024 23.2598L49.9826 0.223549H42.2674L53.7848 31.778H60.9463L72.3529 0.223549H64.7116L57.4024 23.2598Z" fill="#0C0A10"/>
<path d="M75.2323 0.223549H82.5045V31.778H75.2323V0.223549Z" fill="#0C0A10"/>
<path d="M109.009 18.8155L94.4649 0.223549H88.7062V31.778H95.9415V13.7045L110.338 31.778H116.245V0.223549H109.009V18.8155Z" fill="#0C0A10"/>
<path d="M142.159 18.6673H129.755V25.3708H144.595V31.778H122.483V0.223549H144.189V6.63072H129.755V12.7416H142.159V18.6673Z" fill="#0C0A10"/>
<path d="M231.966 20.5191V15.297H244V31.7779H237.946V28.6299C235.724 30.7784 232.763 31.9854 229.677 32.0001C227.697 32.0046 225.737 31.6012 223.918 30.815C222.106 30.0454 220.463 28.9254 219.083 27.5188C217.684 26.0323 216.57 24.2997 215.797 22.4079C214.97 20.2853 214.569 18.0199 214.616 15.7415C214.62 11.5769 216.266 7.58306 219.193 4.63074C220.61 3.17108 222.305 2.01232 224.177 1.22346C226.126 0.396135 228.225 -0.0198838 230.342 0.00128163C232.991 -0.032561 235.607 0.604326 237.946 1.85307C240.125 3.04491 241.899 4.86354 243.04 7.0751L237.577 11.149C236.902 9.77098 235.836 8.62409 234.513 7.85285C233.193 7.07416 231.688 6.6649 230.157 6.66771C229.02 6.65741 227.895 6.91091 226.872 7.40842C225.838 7.87097 224.909 8.53869 224.14 9.37132C223.42 10.2769 222.87 11.3059 222.516 12.4082C221.705 14.8104 221.705 17.4132 222.516 19.8154C222.9 20.9161 223.489 21.9339 224.251 22.8153C224.979 23.6545 225.871 24.3351 226.872 24.8152C227.943 25.2837 229.099 25.5234 230.268 25.5189C231.783 25.5246 233.273 25.1285 234.587 24.3708C235.862 23.6521 236.999 22.7116 237.946 21.5931V20.5191H231.966Z" fill="#E33F31"/>
<path fill-rule="evenodd" clip-rule="evenodd" d="M209.079 3.70492C208.155 2.66728 207.055 1.80208 205.83 1.14946C204.544 0.518137 203.127 0.200874 201.696 0.223568H188.259V31.778H195.642V21.5932H202.065C203.926 21.6357 205.755 21.1058 207.307 20.0747C208.791 19.0568 209.997 17.6815 210.814 16.0749C211.624 14.5443 212.067 12.8448 212.106 11.1121C212.118 9.77958 211.867 8.45782 211.367 7.22332C210.834 5.91516 210.058 4.72102 209.079 3.70492ZM204.132 13.2972C203.878 13.8678 203.484 14.3647 202.988 14.7416C202.539 15.0378 202.012 15.1926 201.474 15.186H195.531V6.63074H201.216C201.787 6.63311 202.347 6.7864 202.84 7.07517C203.392 7.40437 203.83 7.8956 204.095 8.48253C204.531 9.28857 204.747 10.1955 204.723 11.1121C204.671 11.8724 204.471 12.615 204.132 13.2972Z" fill="#E33F31"/>
<path fill-rule="evenodd" clip-rule="evenodd" d="M180.248 17.7785C181.01 16.8975 181.621 15.8964 182.057 14.8156C182.437 13.6193 182.611 12.367 182.574 11.1121C182.574 9.77718 182.31 8.45551 181.799 7.22331C181.343 5.93521 180.655 4.74245 179.768 3.70492C178.858 2.68192 177.754 1.85099 176.52 1.26056C175.23 0.590378 173.801 0.235079 172.348 0.223561H158.247V31.778H165.63V21.5932H170.54L176.557 31.778H184.567L177.553 20.0377C178.579 19.4525 179.492 18.6873 180.248 17.7785ZM174.859 13.149C174.622 13.7915 174.228 14.3644 173.714 14.8156C173.288 15.1654 172.751 15.3495 172.201 15.3341H165.519V6.63074H171.905C172.474 6.64252 173.026 6.82294 173.493 7.14924C174.034 7.53402 174.476 8.04162 174.785 8.63067C175.129 9.40958 175.268 10.2637 175.191 11.1121C175.217 11.8065 175.104 12.4992 174.859 13.149Z" fill="#E33F31"/>
</svg>
