<svg width="96" height="16" viewBox="0 0 96 16" fill="none" xmlns="http://www.w3.org/2000/svg">
<path d="M16.5155 1.71045H9.48486V14.2896H16.5155V1.71045Z" fill="#959A9D"/>
<path d="M9.93154 8C9.93043 6.78853 10.2062 5.59269 10.7379 4.503C11.2696 3.41332 12.0433 2.45835 13.0005 1.7104C11.8151 0.782766 10.3916 0.205884 8.89251 0.0456902C7.39345 -0.114504 5.87937 0.148449 4.52331 0.804506C3.16726 1.46056 2.02395 2.48325 1.22407 3.75567C0.424184 5.02809 0 6.4989 0 8C0 9.50109 0.424184 10.9719 1.22407 12.2443C2.02395 13.5167 3.16726 14.5394 4.52331 15.1955C5.87937 15.8515 7.39345 16.1145 8.89251 15.9543C10.3916 15.7941 11.8151 15.2172 13.0005 14.2896C12.0433 13.5416 11.2696 12.5867 10.7379 11.497C10.2062 10.4073 9.93044 9.21146 9.93154 8Z" fill="#B9BEC1"/>
<path d="M26.0001 8C26.0001 9.50107 25.576 10.9719 24.7761 12.2443C23.9763 13.5167 22.833 14.5394 21.477 15.1955C20.121 15.8515 18.6069 16.1145 17.1079 15.9543C15.6088 15.7941 14.1853 15.2172 13 14.2896C13.9563 13.5409 14.7295 12.5858 15.2611 11.4963C15.7927 10.4067 16.0689 9.21127 16.0689 8C16.0689 6.78873 15.7927 5.59326 15.2611 4.50375C14.7295 3.41423 13.9563 2.45912 13 1.71041C14.1853 0.782769 15.6088 0.20588 17.1079 0.0456882C18.6069 -0.114504 20.121 0.148461 21.477 0.804524C22.833 1.46059 23.9763 2.48328 24.7761 3.7557C25.576 5.02812 26.0001 6.49892 26.0001 8Z" fill="#484E51"/>
<path d="M40.9914 11.307V7.81129C40.9914 6.49458 40.1373 5.60903 38.7613 5.59735C38.3693 5.57228 37.9777 5.65095 37.6272 5.82516C37.2767 5.99937 36.9802 6.26274 36.7685 6.58783C36.5757 6.27243 36.2998 6.01396 35.9699 5.83965C35.6401 5.66534 35.2685 5.58163 34.8943 5.59735C34.5681 5.58125 34.2433 5.64912 33.9521 5.79423C33.6608 5.93935 33.4132 6.15667 33.2337 6.4247V5.73719H32V11.307H33.2455V8.21909C33.2455 7.25197 33.7912 6.73937 34.6334 6.73937C35.4518 6.73937 35.867 7.26365 35.867 8.2075V11.307H37.1125V8.21909C37.1125 7.25197 37.6819 6.73937 38.5004 6.73937C39.3425 6.73937 39.7459 7.26365 39.7459 8.2075V11.307H40.9914ZM59.4248 5.73719H57.4083V4.04766H56.1628V5.73719H55.0122V6.84417H56.1628V9.38434C56.1628 10.6778 56.6729 11.4469 58.1318 11.4469C58.6769 11.4485 59.2114 11.299 59.6739 11.0157L59.3181 9.97862C58.9873 10.1725 58.6118 10.2807 58.2267 10.2933C57.6099 10.2933 57.4083 9.92033 57.4083 9.3611V6.84417H59.4248V5.73719ZM69.9464 5.59735C69.6456 5.58865 69.348 5.65983 69.0849 5.80339C68.8219 5.94694 68.6032 6.15755 68.4518 6.41302V5.73719H67.23V11.307H68.4636V8.18414C68.4636 7.26365 68.8669 6.75093 69.6736 6.75093C69.9375 6.74737 70.1995 6.7949 70.4446 6.8908L70.8242 5.74887C70.5425 5.64979 70.2456 5.59855 69.9464 5.59735ZM54.0395 6.18003C53.3412 5.77213 52.5383 5.56988 51.7264 5.59735C50.2911 5.59735 49.3659 6.27318 49.3659 7.38013C49.3659 8.28906 50.0539 8.84838 51.323 9.02319L51.9043 9.10473C52.5804 9.19788 52.9007 9.37266 52.9007 9.68733C52.9007 10.1185 52.4499 10.3632 51.6078 10.3632C50.9304 10.3823 50.2661 10.1771 49.7217 9.78055L49.1405 10.7243C49.859 11.2173 50.7198 11.4706 51.5959 11.4469C53.2328 11.4469 54.1818 10.6894 54.1818 9.62904C54.1818 8.65022 53.4345 8.13752 52.2009 7.96274L51.6197 7.88117C51.0859 7.81129 50.6589 7.70649 50.6589 7.33363C50.6589 6.92574 51.0621 6.68107 51.7383 6.68107C52.3592 6.69024 52.9674 6.85467 53.5057 7.15882L54.0395 6.18003ZM87.0869 5.59735C86.7861 5.58864 86.4885 5.65981 86.2255 5.80337C85.9624 5.94693 85.7437 6.15754 85.5923 6.41302V5.73719H84.3705V11.307H85.6041V8.18414C85.6041 7.26365 86.0075 6.75093 86.814 6.75093C87.0779 6.74736 87.34 6.79489 87.5852 6.8908L87.9647 5.74887C87.683 5.64979 87.3862 5.59855 87.0869 5.59735ZM71.1918 8.52206C71.1918 10.2117 72.39 11.4469 74.2168 11.4469C74.9574 11.4834 75.6851 11.2464 76.2569 10.7826L75.6638 9.80382C75.2373 10.1232 74.7173 10.2989 74.1811 10.3048C73.1966 10.2933 72.473 9.59409 72.473 8.52206C72.473 7.45011 73.1966 6.75093 74.1811 6.73937C74.7173 6.74531 75.2373 6.92101 75.6638 7.24038L76.2569 6.26159C75.6851 5.79776 74.9574 5.56082 74.2168 5.59735C72.39 5.59735 71.1918 6.8325 71.1918 8.52206ZM82.7454 5.73719H81.5118V6.41302C81.3012 6.14646 81.0287 5.93331 80.7171 5.79141C80.4055 5.6495 80.0638 5.58296 79.7206 5.59735C78.1311 5.59735 76.8856 6.82094 76.8856 8.52206C76.8856 10.2233 78.1311 11.4469 79.7206 11.4469C80.0638 11.4613 80.4055 11.3947 80.7171 11.2528C81.0287 11.1109 81.3012 10.8977 81.5118 10.6312V11.307H82.7454V5.73719ZM78.1548 8.52206C78.1548 7.54326 78.8072 6.73937 79.8749 6.73937C80.8949 6.73937 81.5829 7.50832 81.5829 8.52206C81.5829 9.53579 80.8949 10.3048 79.8749 10.3048C78.8072 10.3048 78.1548 9.50085 78.1548 8.52206ZM63.2681 5.59735C61.6074 5.59735 60.445 6.78588 60.445 8.52206C60.445 10.2933 61.6549 11.4469 63.3512 11.4469C64.1975 11.476 65.0251 11.1981 65.6761 10.6661L65.0711 9.76888C64.6027 10.1377 64.0225 10.3426 63.4223 10.3515C62.6275 10.3515 61.904 9.9903 61.726 8.98813H65.9371C65.9489 8.8367 65.9607 8.68528 65.9607 8.52206C65.9489 6.78588 64.8576 5.59735 63.2681 5.59735ZM63.2444 6.68107C64.0392 6.68107 64.5492 7.1704 64.6797 8.03271H61.7379C61.8684 7.2287 62.3665 6.68107 63.2444 6.68107ZM94.1922 3.5H92.9585V6.41302C92.748 6.14647 92.4755 5.93333 92.1639 5.79142C91.8523 5.64952 91.5106 5.58297 91.1675 5.59735C89.5779 5.59735 88.3324 6.82094 88.3324 8.52206C88.3324 10.2233 89.5779 11.4469 91.1675 11.4469C91.5106 11.4613 91.8523 11.3947 92.1639 11.2528C92.4755 11.1109 92.748 10.8977 92.9585 10.6312V11.307H94.1922V3.5ZM95.634 10.793C95.6829 10.7927 95.7313 10.8021 95.7764 10.8207C95.8198 10.8385 95.8593 10.8643 95.8929 10.8965C95.9262 10.9288 95.9528 10.967 95.9713 11.0092C95.9902 11.0525 96 11.0992 96 11.1463C96 11.1934 95.9902 11.2401 95.9713 11.2834C95.9527 11.3254 95.9261 11.3634 95.8929 11.3956C95.8592 11.4279 95.8197 11.4537 95.7764 11.4718C95.7314 11.4907 95.6829 11.5003 95.634 11.5C95.5619 11.5007 95.4912 11.4805 95.4307 11.442C95.3703 11.4035 95.3227 11.3483 95.294 11.2834C95.2751 11.2401 95.2654 11.1934 95.2654 11.1463C95.2654 11.0992 95.2751 11.0525 95.294 11.0092C95.3312 10.9236 95.4012 10.8559 95.4889 10.8207C95.5349 10.8021 95.5842 10.7927 95.634 10.793ZM95.634 11.422C95.6713 11.4223 95.7082 11.4149 95.7425 11.4004C95.7754 11.3863 95.8053 11.3663 95.8306 11.3414C95.8829 11.2895 95.9122 11.2195 95.9122 11.1465C95.9122 11.0735 95.8829 11.0034 95.8306 10.9515C95.8053 10.9267 95.7754 10.9069 95.7425 10.8931C95.7082 10.8788 95.6712 10.8715 95.634 10.8719C95.596 10.8716 95.5583 10.8788 95.5233 10.8931C95.481 10.9107 95.4439 10.9383 95.415 10.9733C95.3861 11.0083 95.3664 11.0497 95.3576 11.094C95.3488 11.1382 95.3511 11.1839 95.3644 11.227C95.3776 11.2701 95.4015 11.3094 95.4338 11.3414C95.4595 11.3665 95.4899 11.3865 95.5233 11.4004C95.5583 11.4149 95.5959 11.4223 95.634 11.422ZM95.6551 10.981C95.6906 10.9788 95.7257 10.9887 95.7544 11.0092C95.7659 11.0184 95.775 11.0302 95.781 11.0435C95.7871 11.0568 95.7899 11.0713 95.7892 11.0858C95.7896 11.0983 95.7874 11.1107 95.7826 11.1223C95.7778 11.1338 95.7706 11.1443 95.7614 11.1529C95.7395 11.172 95.7117 11.1835 95.6825 11.1855L95.7919 11.3093H95.7063L95.6049 11.1863H95.5722V11.3093H95.5008V10.981H95.6551ZM95.5722 11.0425V11.13H95.6543C95.67 11.1308 95.6857 11.1271 95.6993 11.1192C95.7048 11.1156 95.7092 11.1106 95.7122 11.1047C95.7151 11.0989 95.7164 11.0923 95.716 11.0858C95.7164 11.0795 95.715 11.0731 95.7121 11.0674C95.7091 11.0617 95.7047 11.0568 95.6993 11.0533C95.6857 11.0455 95.67 11.0418 95.6543 11.0425H95.5722ZM89.6017 8.52206C89.6017 7.54326 90.2541 6.73937 91.3216 6.73937C92.3417 6.73937 93.0297 7.50832 93.0297 8.52206C93.0297 9.53579 92.3417 10.3048 91.3216 10.3048C90.2541 10.3048 89.6017 9.50085 89.6017 8.52206ZM47.9425 5.73719H46.7088V6.41302C46.4982 6.14646 46.2257 5.93331 45.9141 5.7914C45.6025 5.64949 45.2608 5.58296 44.9176 5.59735C43.3281 5.59735 42.0827 6.82094 42.0827 8.52206C42.0827 10.2233 43.3281 11.4469 44.9176 11.4469C45.2608 11.4613 45.6025 11.3947 45.9141 11.2528C46.2257 11.1109 46.4982 10.8977 46.7088 10.6312V11.307H47.9425V5.73719ZM43.3519 8.52206C43.3519 7.54326 44.0043 6.73937 45.0719 6.73937C46.092 6.73937 46.7799 7.50832 46.7799 8.52206C46.7799 9.53579 46.092 10.3048 45.0719 10.3048C44.0043 10.3048 43.3519 9.50085 43.3519 8.52206Z" fill="#484E51"/>
</svg>
