<svg width="42" height="12" viewBox="0 0 42 12" fill="none" xmlns="http://www.w3.org/2000/svg">
<path d="M23.3837 1.26803L20.7312 7.0905H20.4617V0H16.6928V11.9985H19.8917C20.7312 11.9985 21.4941 11.5047 21.8476 10.7305L24.5016 4.90801H24.7711V11.9985H28.54V0H25.3411C24.5001 0 23.7372 0.495276 23.3837 1.26803Z" fill="#484E51"/>
<path d="M9.24333 1.57683L7.67332 7.0905H7.4038L5.83378 1.57683C5.56721 0.642964 4.72329 0 3.76449 0H0V12H3.76891V4.9095H4.03843L6.19168 12H8.88397L11.0372 4.9095H11.3067V12H15.0756V0H11.3111C10.3538 0 9.50991 0.642964 9.24333 1.57683Z" fill="#484E51"/>
<path d="M30.1542 5.454V11.9985H33.9158V8.181H37.9616C39.7186 8.181 41.2106 7.04127 41.7658 5.454H30.1542Z" fill="#484E51"/>
<path d="M37.9616 0H29.6152C30.1218 2.79264 32.5343 4.90801 35.4372 4.90801H41.919C41.972 4.64396 42 4.36947 42 4.08901C42 1.83192 40.1929 0 37.9616 0Z" fill="#484E51"/>
</svg>
