<svg width="48" height="14" viewBox="0 0 48 14" fill="none" xmlns="http://www.w3.org/2000/svg">
<path fill-rule="evenodd" clip-rule="evenodd" d="M18.0426 0.391374C18.1398 0.404495 18.2409 0.413087 18.345 0.415529C18.619 0.421932 18.8736 0.509385 19.0625 0.672925C19.2537 0.838559 19.3694 1.07582 19.3694 1.35904C19.3694 1.92376 18.8975 2.30238 18.3412 2.30238C18.2404 2.30238 18.1434 2.2641 18.0581 2.21497C17.971 2.16482 17.8832 2.09578 17.7976 2.01702C17.6262 1.85942 17.4484 1.64887 17.2842 1.43022C16.9574 0.995036 16.6647 0.500877 16.5688 0.273667L16.7551 0.288552L16.5688 0.273667C16.5606 0.254324 16.5449 0.213401 16.5494 0.164639C16.5519 0.136561 16.5616 0.1023 16.5859 0.0706536C16.6104 0.0388592 16.6413 0.0206653 16.6685 0.0110645C16.7155 -0.00552805 16.7591 0.000603623 16.7779 0.0037616C16.8018 0.00778133 16.8256 0.0147091 16.8465 0.0215601C16.8931 0.0368975 16.9601 0.0645303 17.0359 0.0958231C17.0827 0.115139 17.1329 0.135854 17.1838 0.155928C17.4057 0.243494 17.701 0.345268 18.0422 0.39133L17.1555 0.320451L17.1557 0.320543L18.0426 0.391374ZM16.8697 0.147021C16.8688 0.144477 16.8684 0.143992 16.8692 0.14594L16.8697 0.147021Z" fill="#484E51"/>
<path d="M18.0426 0.391374L18.0422 0.39133L18.3309 0.414404L18.0426 0.391374Z" fill="#484E51"/>
<path d="M6.09603 0.945281C6.00591 0.945281 5.93285 1.01852 5.93285 1.10887V6.80314C5.93285 7.94479 5.67907 8.66357 5.29339 9.09625C4.91089 9.52537 4.37416 9.70012 3.74412 9.70012C3.12217 9.70012 2.59328 9.52573 2.21633 9.09707C1.83584 8.6644 1.58563 7.9453 1.58563 6.80314V4.92475C1.58563 4.88132 1.5684 4.83967 1.53774 4.80898C1.50708 4.7783 1.4655 4.76109 1.42217 4.76117C0.986233 4.76194 0.784249 4.76306 0.666999 4.76372L0.666349 4.76372C0.600213 4.76409 0.561021 4.76431 0.521908 4.76422C0.465499 4.7641 0.40909 4.76335 0.271624 4.76151L0.165323 4.76009C0.121677 4.75952 0.0796215 4.7765 0.0485546 4.80723C0.0174877 4.83797 0 4.87991 0 4.92366V6.7737C0 8.35126 0.393284 9.44057 1.07483 10.1348C1.75676 10.8294 2.70076 11.1015 3.74412 11.1015C4.78741 11.1015 5.72784 10.8294 6.40605 10.1344C7.08369 9.44011 7.47301 8.35085 7.47301 6.7737V1.10887C7.47301 1.01852 7.39996 0.945281 7.30984 0.945281H6.09603Z" fill="#484E51"/>
<path d="M0.0543919 3.13711C0.0209995 3.10714 0 3.0636 0 3.01517V1.10887C0 1.01852 0.0730562 0.945281 0.163176 0.945281H1.42246C1.51258 0.945281 1.58563 1.01852 1.58563 1.10887V3.01561C1.58563 3.06406 1.56463 3.10759 1.53124 3.13754V3.17713L1.44797 3.17721C1.43971 3.17851 1.43124 3.17919 1.42262 3.1792C0.983591 3.17963 0.782468 3.18026 0.665376 3.18063H0.665152C0.601385 3.18083 0.562489 3.18095 0.523665 3.18092C0.463863 3.18087 0.404062 3.18045 0.253104 3.17939L0.162042 3.17876C0.1529 3.17869 0.143938 3.17788 0.135214 3.17637L0.0543919 3.17574V3.13711Z" fill="#484E51"/>
<path d="M13.0608 3.27015C12.0809 3.27015 11.3333 3.73554 10.6745 4.33412L10.5982 3.59337C10.5896 3.50998 10.5195 3.4466 10.4358 3.4466H9.40414C9.31402 3.4466 9.24097 3.51984 9.24097 3.61019V10.7612C9.24097 10.8516 9.31402 10.9248 9.40414 10.9248H10.6482C10.7383 10.9248 10.8114 10.8516 10.8114 10.7612V5.65148C11.5251 4.965 11.9934 4.64186 12.6663 4.64186C13.118 4.64186 13.4094 4.77319 13.597 5.02937C13.7932 5.29744 13.8991 5.7322 13.8991 6.39113V10.7612C13.8991 10.8516 13.9721 10.9248 14.0623 10.9248H15.3065C15.3967 10.9248 15.4697 10.8516 15.4697 10.7612V6.22929C15.4697 5.30085 15.293 4.55879 14.8925 4.04643C14.486 3.52622 13.8709 3.27015 13.0608 3.27015Z" fill="#484E51"/>
<path d="M17.7039 3.4466C17.6138 3.4466 17.5408 3.51984 17.5408 3.61018V10.7612C17.5408 10.8516 17.6138 10.9248 17.7039 10.9248H18.9482C19.0383 10.9248 19.1114 10.8516 19.1114 10.7612V3.61018C19.1114 3.51984 19.0383 3.4466 18.9482 3.4466H17.7039Z" fill="#484E51"/>
<path d="M21.8616 1.44563C21.7763 1.44563 21.7054 1.51152 21.6989 1.5968L21.5578 3.45598L20.5463 3.52065C20.4604 3.52614 20.3935 3.5976 20.3935 3.6839V4.59605C20.3935 4.6864 20.4665 4.75964 20.5567 4.75964H21.4859V8.55415C21.4859 9.27607 21.6207 9.91573 21.9837 10.377C22.3528 10.8461 22.934 11.1015 23.7582 11.1015C24.2403 11.1015 24.7612 10.962 25.1739 10.8286C25.2566 10.8019 25.3039 10.7149 25.2815 10.6307L25.0387 9.71857C25.0269 9.67426 24.9971 9.63694 24.9565 9.61573C24.916 9.59451 24.8684 9.59133 24.8254 9.60698C24.5824 9.69538 24.2729 9.78845 24.0464 9.78845C23.6548 9.78845 23.4269 9.67488 23.2889 9.49259C23.1432 9.30022 23.0717 8.99875 23.0717 8.56876V4.75964H24.8963C24.9864 4.75964 25.0594 4.6864 25.0594 4.59605V3.61018C25.0594 3.51984 24.9864 3.4466 24.8963 3.4466H23.0717V1.60921C23.0717 1.51887 22.9987 1.44563 22.9086 1.44563H21.8616Z" fill="#484E51"/>
<path fill-rule="evenodd" clip-rule="evenodd" d="M30.1007 3.27015C29.263 3.27015 28.4788 3.67086 27.8326 4.16044L27.759 3.58923C27.7485 3.50766 27.6792 3.4466 27.5972 3.4466H26.5654C26.4753 3.4466 26.4023 3.51984 26.4023 3.61019V13.7777C26.4023 13.8681 26.4753 13.9413 26.5654 13.9413H27.8095C27.8996 13.9413 27.9727 13.8681 27.9727 13.7777V11.3645L27.9726 11.3606L27.9503 10.437C28.5623 10.8498 29.1891 11.1015 29.8277 11.1015C31.6194 11.1015 33.1773 9.58245 33.1773 7.08276C33.1773 5.94954 32.9184 4.99735 32.3976 4.32473C31.8724 3.6464 31.0944 3.27015 30.1007 3.27015ZM27.9727 9.09335V5.49521C28.6676 4.90187 29.2355 4.61242 29.7822 4.61242C30.4323 4.61242 30.8642 4.85535 31.1415 5.26698C31.4263 5.68955 31.5612 6.30972 31.5612 7.08276C31.5612 7.93938 31.344 8.61133 30.9957 9.06503C30.6498 9.51565 30.1696 9.75901 29.6153 9.75901C29.1874 9.75901 28.5948 9.58183 27.9727 9.09335Z" fill="#484E51"/>
<path fill-rule="evenodd" clip-rule="evenodd" d="M37.5358 3.27015C36.3081 3.27015 35.2454 3.7881 34.5513 4.2219C34.4765 4.26863 34.4523 4.36644 34.4965 4.44284L34.9821 5.28148C35.0047 5.32045 35.0423 5.34836 35.086 5.35863C35.1298 5.36891 35.1758 5.36063 35.2133 5.33577C35.7791 4.96031 36.5206 4.5978 37.3235 4.5978C37.885 4.5978 38.2098 4.79847 38.4025 5.08183C38.5807 5.34393 38.6595 5.69669 38.6748 6.08313C37.1748 6.25449 36.0643 6.53293 35.3198 6.96909C34.9326 7.19588 34.6396 7.46805 34.4441 7.79416C34.2481 8.12092 34.1559 8.49214 34.1559 8.90728C34.1559 9.58942 34.4039 10.1428 34.8263 10.5242C35.2467 10.9037 35.8267 11.1015 36.4737 11.1015C37.37 11.1015 38.1617 10.6852 38.8317 10.1808L38.9065 10.7815C38.9167 10.8634 38.9861 10.9248 39.0684 10.9248H40.1001C40.1902 10.9248 40.2633 10.8516 40.2633 10.7612V6.37651C40.2633 5.46667 40.07 4.68806 39.6218 4.13437C39.1686 3.57456 38.4759 3.27015 37.5358 3.27015ZM38.6776 8.93506C37.9999 9.51384 37.473 9.80307 36.8379 9.80307C36.4958 9.80307 36.21 9.72326 36.0132 9.56783C35.8225 9.41722 35.6961 9.18059 35.6961 8.81894C35.6961 8.61781 35.7425 8.44099 35.8422 8.28217C35.9427 8.12213 36.1033 7.97087 36.3461 7.83169C36.8115 7.56485 37.5561 7.35501 38.6776 7.20909V8.93506Z" fill="#484E51"/>
<path d="M40.9934 3.50113H40.9523L40.968 3.53923C40.9481 3.58085 40.9464 3.62941 40.9643 3.67275L43.9003 10.7836L43.7519 11.2543C43.4557 12.1149 42.9644 12.6723 42.2379 12.6723C42.0817 12.6723 41.8742 12.6201 41.7218 12.5759C41.6794 12.5635 41.6337 12.569 41.5954 12.591C41.557 12.613 41.5292 12.6497 41.5183 12.6926L41.2755 13.6491C41.2548 13.7306 41.2991 13.8145 41.3779 13.8432C41.6382 13.9379 41.9452 14 42.2984 14C43.0871 14 43.6898 13.7129 44.1593 13.238C44.6236 12.7685 44.9521 12.1212 45.2132 11.4062L45.2136 11.4053L47.9904 3.66555C48.0062 3.62147 48.0023 3.57303 47.9804 3.53236L47.9916 3.50113H47.9584C47.9277 3.46665 47.8835 3.4466 47.8368 3.4466H46.623C46.5528 3.4466 46.4905 3.49158 46.4683 3.55831L45.1481 7.51641L45.1471 7.51952C45.0729 7.75764 44.9971 8.00836 44.9202 8.2627C44.83 8.56098 44.7384 8.86424 44.646 9.15804C44.4553 8.60773 44.26 8.05903 44.0601 7.512L42.5573 3.55202C42.5332 3.48855 42.4725 3.4466 42.4048 3.4466H41.1151C41.0683 3.4466 41.0242 3.4667 40.9934 3.50113Z" fill="#484E51"/>
</svg>
