<svg width="37" height="12" viewBox="0 0 37 12" fill="none" xmlns="http://www.w3.org/2000/svg">
<path fill-rule="evenodd" clip-rule="evenodd" d="M19.1355 3.83634C19.1144 5.50791 20.6188 6.44072 21.752 6.99534C22.9164 7.56445 23.3075 7.92936 23.3031 8.43818C23.2942 9.21706 22.3742 9.5607 21.5132 9.57408C20.011 9.59749 19.1377 9.1668 18.4433 8.841L17.9023 11.384C18.5989 11.7065 19.8888 11.9877 21.2265 12C24.3664 12 26.4206 10.4434 26.4318 8.02979C26.444 4.96676 22.2131 4.79712 22.242 3.42795C22.252 3.01287 22.6464 2.56982 23.5108 2.45713C23.9385 2.40028 25.1196 2.35671 26.4584 2.97599L26.9839 0.5156C26.264 0.252226 25.3384 0 24.1863 0C21.231 0 19.1522 1.57783 19.1355 3.83634ZM32.0337 0.212001C31.4604 0.212001 30.977 0.54793 30.7615 1.06344L26.2762 11.8192H29.4138L30.0382 10.0862H33.8724L34.2346 11.8192H37L34.5868 0.212001H32.0337ZM32.4725 3.34759L33.378 7.70612H30.8981L32.4725 3.34759ZM15.3313 0.212001L12.8581 11.8192H15.8479L18.32 0.212001H15.3313ZM10.9082 0.212001L7.79618 8.11229L6.53734 1.39481C6.38962 0.645011 5.80632 0.212001 5.15854 0.212001H0.0711322L0 0.549044C1.04442 0.776651 2.23101 1.1438 2.94983 1.53658C3.38976 1.77645 3.51537 1.98622 3.65976 2.55645L6.04404 11.8192H9.20393L14.0481 0.212001H10.9082Z" fill="#484E51"/>
</svg>
