<svg width="80" height="18" viewBox="0 0 80 18" fill="none" xmlns="http://www.w3.org/2000/svg">
<path d="M8.95718 0C10.3615 0 11.6976 0.326705 12.8965 0.911121C13.0846 0.997262 13.2738 1.10036 13.4612 1.20355L12.6391 1.94301L11.4067 0.653501L9.28305 2.54456L8.03249 1.18614L4.12744 4.71082L6.62758 7.4789L5.65155 8.33833L8.1182 11.1064L7.14208 11.9655L10.6705 15.9027L12.7588 13.977L14.5751 16.0407C14.2151 16.3159 13.8212 16.5915 13.3935 16.8318C12.0916 17.571 10.5842 18 8.97448 18C4.02431 18 5.67278e-05 13.9605 5.67278e-05 8.99227C-0.0174244 4.05759 4.00754 0 8.95718 0ZM7.31271 8.4417L9.45367 6.51601L11.3723 8.66504L9.23092 10.5906L7.31271 8.4417ZM8.83745 12.1554L10.961 10.2127L12.8965 12.3616L10.7555 14.2873L8.83745 12.1554ZM5.78931 4.77982L7.92964 2.85413L9.84785 5.00316L7.7068 6.92876L5.78931 4.77982ZM9.71062 3.74793L11.3036 2.30382L12.7426 3.90281L11.1496 5.36398L9.71062 3.74793ZM12.554 10.3671L14.1465 8.92292L15.5854 10.5386L13.9924 11.9837L12.554 10.3671ZM13.9583 13.6169L15.5513 12.1724L16.9891 13.7713L15.3967 15.2323L13.9583 13.6169ZM14.6092 6.1893L15.6709 5.22641L16.6297 6.29276L15.5682 7.25529L14.6092 6.1893ZM13.239 3.00864L14.3008 2.02888L15.2603 3.11183L14.1977 4.07463L13.239 3.00864ZM15.9621 9.37023L17.0238 8.40743L18 9.47342L16.9214 10.436L15.9621 9.37023ZM11.1838 6.98036L12.7768 5.53616L14.2151 7.13479L12.6228 8.57926L11.1838 6.98036Z" fill="#484E51"/>
<mask id="mask0_1183_19912" style="mask-type:alpha" maskUnits="userSpaceOnUse" x="26" y="4" width="10" height="9">
<path d="M26 4.0647V12.2569H35.2739V4.0647H26Z" fill="white"/>
</mask>
<g mask="url(#mask0_1183_19912)">
<path d="M30.6541 6.4905H30.5741L29.0716 12.2569H27.8435L26 4.0647H27.2742L28.5487 10.1775H28.6283L30.1073 4.0647H31.1203L32.7021 10.1775H32.7817L33.9425 4.0647H35.2739L33.43 12.2569H32.201L30.6541 6.4905Z" fill="#484E51"/>
</g>
<path d="M36.8901 8.76922H39.4954C39.4389 7.55636 38.8582 7.07151 38.244 7.07151C37.5499 7.07151 37.0148 7.61445 36.8901 8.76922ZM40.4056 10.9421V11.8204C39.8936 12.1208 39.2113 12.352 38.3915 12.352C36.4804 12.352 35.6953 11.1503 35.6953 9.32492C35.6953 7.5679 36.5713 6.29688 38.2781 6.29688C39.7001 6.29688 40.5768 7.23343 40.5768 9.11637V9.54394H36.8673C36.8673 10.9301 37.4245 11.5426 38.597 11.5426C39.2113 11.5426 39.7802 11.3227 40.4056 10.9421Z" fill="#484E51"/>
<path d="M43.2237 11.4254C43.5879 11.5871 43.9865 11.6111 44.2714 11.6111C45.1132 11.6111 45.7497 11.0788 45.7497 9.20746C45.7497 7.74002 45.2264 7.26625 44.4643 7.26625C44.0088 7.26625 43.679 7.39376 43.2237 7.64746V11.4254H43.2237ZM43.2357 6.79266C43.5762 6.6084 44.1564 6.36491 44.7711 6.36491C46.1822 6.36491 46.9447 7.35856 46.9447 9.20746C46.9447 11.3683 45.9205 12.4198 44.2714 12.4198C43.6679 12.4198 42.7349 12.2233 42.0518 11.8527V3.78846L43.2357 3.5V6.79266H43.2357Z" fill="#484E51"/>
<path d="M52.0663 10.5184H52.1233L54.5579 4.05933H55.9696V12.2521H54.7407V6.31265H54.6381L52.3165 12.2521H51.5889L49.2668 6.45151H49.1648V12.2521H48.1406V4.05933H49.5179L52.0663 10.5184Z" fill="#484E51"/>
<path d="M60.9903 9.32457C60.9903 7.76483 60.365 7.10654 59.5912 7.10654C58.8405 7.10654 58.1914 7.76484 58.1914 9.32457C58.1914 10.9077 58.7838 11.5426 59.5912 11.5426C60.3987 11.5426 60.9903 10.9077 60.9903 9.32457ZM56.9971 9.32457C56.9971 7.3018 58.0897 6.29688 59.5912 6.29688C61.0937 6.29688 62.1857 7.30179 62.1857 9.32457C62.1857 11.3 61.1504 12.352 59.5912 12.352C58.0324 12.352 56.9971 11.3 56.9971 9.32457Z" fill="#484E51"/>
<path d="M63.0859 7.15255C63.5979 6.84008 64.6794 6.29688 65.9876 6.29688C67.3529 6.29688 67.864 6.84008 67.864 8.02988V12.2132H66.6815V8.29597C66.6815 7.38337 66.2385 7.22162 65.6574 7.22162C65.2028 7.22162 64.6218 7.42991 64.2694 7.63784V12.2132H63.0859V7.15255H63.0859Z" fill="#484E51"/>
<path d="M70.3688 8.76922H72.9742C72.9183 7.55636 72.3373 7.07151 71.7228 7.07151C71.0286 7.07151 70.4945 7.61445 70.3688 8.76922ZM73.8843 10.9421V11.8204C73.3726 12.1208 72.6898 12.352 71.8704 12.352C69.9599 12.352 69.1743 11.1503 69.1743 9.32492C69.1743 7.5679 70.05 6.29688 71.757 6.29688C73.1798 6.29688 74.0563 7.23343 74.0563 9.11637V9.54394H70.3464C70.3464 10.9301 70.904 11.5426 72.076 11.5426C72.6898 11.5426 73.2596 11.3227 73.8843 10.9421Z" fill="#484E51"/>
<path d="M78.7824 6.29688H80.0002L77.9405 12.0734C77.3708 13.6681 76.6775 14.5001 75.3692 14.5001V13.5532C76.1434 13.5532 76.6206 12.929 76.8943 12.0734L74.7095 6.29688H75.9613L77.4177 10.5489H77.486L78.7824 6.29688Z" fill="#484E51"/>
</svg>
