<svg width="62" height="14" viewBox="0 0 62 14" fill="none" xmlns="http://www.w3.org/2000/svg">
<path d="M12.8986 0C8.9436 0 5.79762 3.14558 5.79762 7C5.79762 10.8987 8.98856 14 12.8986 14C16.8086 14 19.9995 10.8544 19.9995 7C20.0445 3.14558 16.8086 0 12.8986 0ZM12.8986 9.61391C11.4604 9.61391 10.2469 8.41772 10.2469 7C10.2469 5.58228 11.4604 4.38609 12.8986 4.38609C14.3367 4.38609 15.5502 5.58228 15.5502 7C15.5502 8.41772 14.3817 9.61391 12.8986 9.61391Z" fill="#484E51"/>
<path d="M5.79762 2.03803V12.2279H3.23588L0 2.03803H5.79762Z" fill="#484E51"/>
<path d="M60.3549 4.13916L59.0159 7.46938C58.9777 7.50809 58.9777 7.58553 58.9777 7.62427L58.9392 7.7017L58.901 7.62427C58.901 7.58553 58.8628 7.50809 58.8628 7.46938L57.5238 4.13916H55.8023L58.0594 9.8315L57.1031 12H58.8246L62 4.13916H60.3549Z" fill="#484E51"/>
<path d="M47.6534 4.44894C47.3473 4.21659 46.9648 4.0617 46.5057 4.02299C45.7407 3.94553 45.0139 4.21659 44.5165 4.72001V4.10044H42.9478V9.79278H44.5165V6.81107C44.5165 6.15277 44.6311 5.95916 44.746 5.80427C44.9372 5.49449 45.2815 5.33959 45.7025 5.33959C46.1232 5.33959 46.5057 5.5332 46.6972 5.84298C46.8118 6.07533 46.85 6.38511 46.85 6.54C46.85 7.04342 46.85 9.79278 46.85 9.79278H48.4187V6.3464C48.4187 5.45574 48.1508 4.83618 47.6534 4.44894Z" fill="#484E51"/>
<path d="M39.9637 4.17788C39.1987 3.90682 38.3571 3.94556 37.5918 4.29405C37.0944 4.5264 36.6355 4.91362 36.3676 5.41703C36.0997 5.84299 35.9851 6.38512 35.9851 6.96596C35.9851 7.54681 36.0997 8.08894 36.3676 8.5149C36.6355 8.94085 36.9798 9.32809 37.4388 9.56044C37.8979 9.79279 38.4335 9.94768 38.9308 9.94768C39.1987 9.94768 39.4664 9.90894 39.7343 9.8315C39.9637 9.75405 40.1934 9.67661 40.4229 9.56044C40.882 9.28937 41.2645 8.94085 41.4942 8.5149C41.7619 8.08894 41.8767 7.54681 41.8767 6.96596C41.9149 5.6881 41.1881 4.60384 39.9637 4.17788ZM40.4229 7.04342C40.3847 7.54681 40.2316 7.97277 39.9255 8.24383C39.6961 8.43746 39.3518 8.55364 38.9308 8.59235C38.5101 8.59235 38.204 8.47618 37.9361 8.24383C37.6302 7.97277 37.4772 7.54681 37.4388 7.04342C37.4006 6.46257 37.6302 5.99788 38.051 5.6881C38.2804 5.53321 38.5865 5.41703 38.8926 5.41703C39.2369 5.41703 39.5048 5.53321 39.7725 5.6881C40.2316 5.95916 40.4611 6.46257 40.4229 7.04342Z" fill="#484E51"/>
<path d="M34.187 4.44892C33.8809 4.2166 33.4984 4.06171 33.0392 4.02297C32.9628 4.02297 32.848 4.02297 32.7716 4.02297C32.1594 4.02297 31.6238 4.29403 31.1647 4.83616L31.0883 4.95234H30.9352C30.8204 4.75873 30.6673 4.60384 30.5143 4.48766C30.2082 4.25531 29.8257 4.10042 29.3665 4.06171C28.6397 3.98425 28.0659 4.2166 27.5685 4.75873V4.17788H26V9.8702H27.5685V6.81105C27.5685 6.19149 27.6451 6.0366 27.7598 5.84299C27.9511 5.53318 28.2954 5.33957 28.6779 5.37829C29.0607 5.37829 29.405 5.57192 29.5962 5.8817C29.7493 6.11403 29.7493 6.38509 29.7493 6.65616V9.83148H31.3177V6.77233C31.3177 6.19149 31.3941 5.99788 31.509 5.80425C31.7002 5.49446 32.0445 5.33957 32.4273 5.33957C32.8098 5.33957 33.1159 5.53318 33.3071 5.84299C33.422 6.0366 33.4602 6.26894 33.4602 6.42383C33.4602 6.50127 33.4602 6.57873 33.4602 6.61744V9.79276H35.0286V6.30766C35.0286 5.99788 34.9904 5.68807 34.9138 5.41701C34.761 5.02979 34.5313 4.68127 34.187 4.44892Z" fill="#484E51"/>
<path d="M54.3103 8.08896C54.0808 8.32131 53.545 8.74727 52.8182 8.78599C52.206 8.8247 51.7471 8.6311 51.4028 8.2826C51.2497 8.12768 51.1349 7.89536 51.0585 7.66301H55.3814V7.62429C55.4198 7.39194 55.458 7.19834 55.458 6.96599C55.458 6.77238 55.4198 6.50132 55.3432 6.15279C55.1519 5.49449 54.7694 4.9911 54.2721 4.60386C53.6981 4.1779 53.1625 4.06173 53.0095 4.06173C51.9001 3.86812 50.6375 4.37151 49.9871 5.41706C49.528 6.15279 49.5664 6.88853 49.5664 7.12088C49.5664 7.39194 49.6046 8.24386 50.2932 9.01833C51.0967 9.90896 52.206 9.94768 52.5503 9.98642C54.0808 10.0251 55.1137 9.05705 55.3432 8.86344L54.3103 8.08896ZM51.6322 5.68812C51.8617 5.53323 52.1296 5.41706 52.4739 5.41706C52.8182 5.41706 53.0861 5.53323 53.3538 5.68812C53.5835 5.88173 53.7747 6.11408 53.8893 6.38514H51.1349C51.1731 6.11408 51.3644 5.84301 51.6322 5.68812Z" fill="#484E51"/>
</svg>
