<svg width="18" height="14" viewBox="0 0 18 14" fill="none" xmlns="http://www.w3.org/2000/svg">
<path d="M15.2378 1.11908C14.0905 0.601104 12.8602 0.219486 11.5739 0.000916868C11.5505 -0.00330144 11.5271 0.00724035 11.515 0.0283244C11.3568 0.305224 11.1815 0.666462 11.0588 0.950394C9.6753 0.746588 8.29889 0.746588 6.94374 0.950394C6.82099 0.660151 6.63936 0.305224 6.48043 0.0283244C6.46836 0.00794381 6.44496 -0.00259798 6.42154 0.000916868C5.13593 0.218787 3.90567 0.600406 2.7577 1.11908C2.74776 1.12329 2.73924 1.13033 2.73359 1.13946C0.400044 4.56983 -0.239213 7.9159 0.0743851 11.2205C0.075804 11.2366 0.0850274 11.2521 0.0977985 11.2619C1.63741 12.3745 3.12878 13.0499 4.59246 13.4975C4.61588 13.5046 4.6407 13.4961 4.65561 13.4772C5.00184 13.0119 5.31048 12.5214 5.57511 12.0055C5.59072 11.9753 5.57582 11.9394 5.5439 11.9275C5.05435 11.7448 4.5882 11.522 4.1398 11.269C4.10433 11.2486 4.10149 11.1987 4.13412 11.1748C4.22848 11.1052 4.32286 11.0328 4.41297 10.9597C4.42927 10.9464 4.45198 10.9436 4.47115 10.952C7.41696 12.2754 10.6062 12.2754 13.5172 10.952C13.5364 10.9429 13.5591 10.9457 13.5761 10.959C13.6662 11.0321 13.7606 11.1052 13.8557 11.1748C13.8883 11.1987 13.8862 11.2486 13.8507 11.269C13.4023 11.5269 12.9361 11.7448 12.4459 11.9268C12.414 11.9387 12.3998 11.9753 12.4154 12.0055C12.6857 12.5206 12.9943 13.0112 13.3342 13.4765C13.3484 13.4961 13.3739 13.5046 13.3973 13.4975C14.8681 13.0499 16.3595 12.3745 17.8991 11.2619C17.9126 11.2521 17.9211 11.2373 17.9225 11.2212C18.2978 7.40072 17.2939 4.0821 15.2612 1.14016C15.2562 1.13033 15.2477 1.12329 15.2378 1.11908ZM6.01502 9.20833C5.12812 9.20833 4.39735 8.40715 4.39735 7.42322C4.39735 6.43929 5.11395 5.63811 6.01502 5.63811C6.92315 5.63811 7.64686 6.44632 7.63266 7.42322C7.63266 8.40715 6.91606 9.20833 6.01502 9.20833ZM11.9961 9.20833C11.1092 9.20833 10.3784 8.40715 10.3784 7.42322C10.3784 6.43929 11.095 5.63811 11.9961 5.63811C12.9042 5.63811 13.6279 6.44632 13.6137 7.42322C13.6137 8.40715 12.9042 9.20833 11.9961 9.20833Z" fill="#FCFDFD"/>
</svg>
