<svg width="24" height="29" viewBox="0 0 24 29" fill="none" xmlns="http://www.w3.org/2000/svg">
<path d="M9.43467 12.6667C10.2347 12.6667 10.8827 13.2667 10.868 14.0001C10.868 14.7334 10.236 15.3334 9.43467 15.3334C8.648 15.3334 8 14.7334 8 14.0001C8 13.2667 8.63333 12.6667 9.43467 12.6667ZM14.5653 12.6667C15.3667 12.6667 16 13.2667 16 14.0001C16 14.7334 15.3667 15.3334 14.5653 15.3334C13.7787 15.3334 13.132 14.7334 13.132 14.0001C13.132 13.2667 13.764 12.6667 14.5653 12.6667ZM21.188 0.666748C22.7387 0.666748 24 1.95475 24 3.55075V28.6667L21.052 26.0067L19.392 24.4387L17.636 22.7721L18.364 25.3627H2.812C1.26133 25.3627 0 24.0747 0 22.4787V3.55075C0 1.95475 1.26133 0.666748 2.812 0.666748H21.1867H21.188ZM15.8947 18.9507C18.9253 18.8534 20.092 16.8227 20.092 16.8227C20.092 12.3147 18.116 8.66008 18.116 8.66008C16.1427 7.14941 14.2627 7.19075 14.2627 7.19075L14.0707 7.41475C16.4027 8.14275 17.4853 9.19342 17.4853 9.19342C16.2121 8.47607 14.8089 8.0192 13.3573 7.84941C12.4366 7.74542 11.5066 7.75438 10.588 7.87608C10.5053 7.87608 10.436 7.89075 10.3547 7.90408C9.87467 7.94675 8.708 8.12808 7.24133 8.78675C6.73467 9.02408 6.432 9.19342 6.432 9.19342C6.432 9.19342 7.57067 8.08675 10.0387 7.35875L9.90133 7.19075C9.90133 7.19075 8.02267 7.14941 6.048 8.66141C6.048 8.66141 4.07333 12.3147 4.07333 16.8227C4.07333 16.8227 5.22533 18.8521 8.256 18.9507C8.256 18.9507 8.76267 18.3214 9.176 17.7894C7.43333 17.2561 6.776 16.1361 6.776 16.1361C6.776 16.1361 6.912 16.2347 7.15867 16.3747C7.172 16.3881 7.18533 16.4027 7.21333 16.4161C7.25467 16.4454 7.296 16.4587 7.33733 16.4867C7.68 16.6827 8.02267 16.8361 8.33733 16.9627C8.9 17.1867 9.572 17.4107 10.3547 17.5654C11.5271 17.7952 12.7325 17.7998 13.9067 17.5787C14.5906 17.4567 15.2578 17.2549 15.8947 16.9774C16.3747 16.7947 16.9093 16.5281 17.472 16.1507C17.472 16.1507 16.7867 17.2987 14.9893 17.8174C15.4013 18.3494 15.896 18.9507 15.896 18.9507H15.8947Z" fill="#E33F31"/>
</svg>
