<svg width="24" height="24" viewBox="0 0 24 24" fill="none" xmlns="http://www.w3.org/2000/svg">
<path fill-rule="evenodd" clip-rule="evenodd" d="M5.81902 0.189111C6.35942 0.0653669 6.92208 0 7.5 0H16.5C17.0783 0 17.6413 0.0654511 18.182 0.18935C18.8372 0.288863 19.37 0.439522 19.86 0.63C20.652 0.9348 21.3192 1.3476 21.9864 2.0136C22.5966 2.61348 23.0687 3.33911 23.37 4.14C23.5594 4.62851 23.7101 5.16064 23.8099 5.8147C23.9343 6.35642 24 6.92054 24 7.5V16.5C24 17.0797 23.9342 17.644 23.8098 18.1859C23.71 18.8393 23.5593 19.3709 23.37 19.86C23.0696 20.6613 22.5973 21.3871 21.9864 21.9864C21.3864 22.5964 20.6608 23.0685 19.86 23.37C19.3715 23.5594 18.8394 23.7101 18.1853 23.8099C17.6436 23.9343 17.0795 24 16.5 24H7.5C6.92032 24 6.35601 23.9342 5.81411 23.8098C5.16071 23.71 4.62906 23.5593 4.14 23.37C3.33879 23.0694 2.61303 22.5971 2.0136 21.9864C1.40329 21.3866 0.931118 20.661 0.63 19.86C0.439436 19.3705 0.288727 18.8373 0.189215 18.1814C0.0654037 17.6409 0 17.0781 0 16.5V7.5C0 6.92208 0.0653669 6.35942 0.189111 5.81902C0.288621 5.16317 0.439369 4.63041 0.63 4.14C0.930283 3.33862 1.40256 2.61279 2.0136 2.0136C2.61321 1.40308 3.33891 0.930875 4.14 0.63C4.63041 0.439369 5.16317 0.288621 5.81902 0.189111ZM12.8386 17.25C7.26438 17.25 3.88152 13.3052 3.75 6.75H6.57318C6.66119 11.5653 8.80897 13.6088 10.4554 14.0253V6.75H13.1619V10.9046C14.75 10.7251 16.4113 8.83487 16.9709 6.75H19.632C19.2057 9.31499 17.3972 11.2052 16.1176 11.9849C17.3972 12.6153 19.456 14.2654 20.25 17.25H17.324C16.706 15.2549 15.1911 13.7096 13.1619 13.4998V17.25H12.8386Z" fill="#E33F31"/>
</svg>
