<svg width="28" height="22" viewBox="0 0 28 22" fill="none" xmlns="http://www.w3.org/2000/svg">
<path d="M26.724 3.66392C27.3334 6.03992 27.3334 10.9999 27.3334 10.9999C27.3334 10.9999 27.3334 15.9599 26.724 18.3359C26.3854 19.6493 25.3947 20.6826 24.14 21.0319C21.8614 21.6666 14 21.6666 14 21.6666C14 21.6666 6.14269 21.6666 3.86002 21.0319C2.60002 20.6773 1.61069 19.6453 1.27602 18.3359C0.666687 15.9599 0.666687 10.9999 0.666687 10.9999C0.666687 10.9999 0.666687 6.03992 1.27602 3.66392C1.61469 2.35059 2.60535 1.31725 3.86002 0.967918C6.14269 0.333252 14 0.333252 14 0.333252C14 0.333252 21.8614 0.333252 24.14 0.967918C25.4 1.32258 26.3894 2.35459 26.724 3.66392ZM11.3334 15.6666L19.3334 10.9999L11.3334 6.33325V15.6666Z" fill="#E33F31"/>
</svg>
